<?xml version="1.0" standalone="no"?>
<!DOCTYPE svg PUBLIC "-//W3C//DTD SVG 20010904//EN"
 "http://www.w3.org/TR/2001/REC-SVG-20010904/DTD/svg10.dtd">
<svg version="1.0" xmlns="http://www.w3.org/2000/svg"
 width="16.000000pt" height="16.000000pt" viewBox="0 0 16.000000 16.000000"
 preserveAspectRatio="xMidYMid meet">
<metadata>
Created by potrace 1.11, written by Peter Selinger 2001-2013
</metadata>
<g transform="translate(0.000000,16.000000) scale(0.000800,-0.000800)"
fill="#000000" stroke="none">
<path d="M9525 19990 c-55 -5 -172 -14 -260 -20 -1263 -86 -2537 -432 -3685
-1001 -1070 -529 -1991 -1208 -2827 -2084 -1449 -1517 -2387 -3473 -2663
-5554 -64 -482 -85 -835 -84 -1386 1 -490 11 -688 59 -1104 214 -1856 942
-3602 2118 -5080 478 -600 1063 -1178 1677 -1655 1499 -1166 3278 -1876 5165
-2061 348 -34 491 -40 965 -40 475 0 597 5 970 41 2962 280 5653 1882 7332
4364 926 1369 1494 2942 1658 4585 33 340 41 487 47 875 15 979 -119 1968
-393 2917 -442 1532 -1271 2969 -2380 4124 -813 847 -1726 1520 -2764 2038
-436 217 -798 369 -1220 512 -864 294 -1625 445 -2620 520 -182 14 -961 20
-1095 9z m845 -1230 c728 -34 1393 -142 2060 -335 1789 -519 3359 -1588 4506
-3070 865 -1118 1451 -2448 1693 -3845 90 -516 125 -942 125 -1505 0 -563 -35
-989 -125 -1505 -431 -2488 -1927 -4677 -4094 -5992 -1115 -676 -2352 -1089
-3660 -1222 -527 -54 -1202 -56 -1715 -5 -1220 120 -2373 478 -3420 1062
-2220 1237 -3790 3361 -4319 5842 -128 601 -185 1161 -185 1820 0 563 35 989
125 1505 373 2154 1541 4087 3284 5436 1625 1257 3681 1909 5725 1814z"/>
<path d="M4670 15489 c-41 -4 -120 -13 -175 -20 -55 -7 -109 -12 -119 -11 -34
2 -368 -68 -456 -95 -101 -32 -88 -28 -125 -38 -16 -4 -48 -16 -70 -26 -22
-10 -67 -29 -100 -42 -155 -64 -333 -176 -411 -259 -49 -50 -134 -166 -134
-180 0 -6 -20 -41 -45 -77 -58 -89 -85 -154 -92 -221 -4 -37 -16 -73 -38 -110
-71 -119 -168 -336 -209 -465 -35 -110 -65 -329 -55 -391 14 -85 11 -100 -17
-112 -47 -22 -179 -125 -263 -206 -133 -129 -286 -338 -350 -479 -42 -91 -89
-237 -96 -295 -3 -26 -10 -74 -15 -107 -13 -79 -13 -374 0 -467 6 -40 12 -95
15 -123 5 -62 17 -125 45 -235 88 -356 211 -647 386 -909 38 -57 89 -135 114
-172 173 -260 386 -513 510 -604 66 -49 180 -104 230 -113 39 -6 46 -12 67
-52 32 -61 65 -92 126 -124 31 -15 62 -41 77 -63 14 -21 38 -52 53 -70 15 -17
43 -64 62 -102 34 -70 35 -74 40 -233 3 -90 10 -224 15 -298 5 -74 12 -290 15
-480 3 -190 10 -437 15 -550 5 -113 12 -277 15 -365 5 -190 22 -485 30 -529 6
-35 22 -225 35 -426 5 -74 14 -169 19 -210 5 -41 16 -142 25 -225 8 -82 22
-181 30 -220 9 -38 18 -95 21 -125 12 -116 107 -216 232 -245 70 -16 246 -51
328 -66 33 -6 85 -16 115 -24 30 -7 80 -16 110 -19 50 -6 118 -19 250 -47 25
-5 92 -16 150 -24 58 -8 161 -23 230 -34 69 -11 175 -23 235 -27 61 -3 113 -8
117 -10 15 -9 750 -3 828 6 216 26 338 51 570 115 204 55 594 225 630 274 11
14 26 33 33 41 44 51 50 72 58 229 4 86 13 210 19 276 7 71 9 177 6 260 -18
391 1 846 44 1080 5 28 12 77 15 109 3 32 17 118 32 190 14 72 25 138 25 146
0 8 9 47 20 85 40 145 90 364 117 515 43 245 51 296 50 320 -1 14 6 94 15 179
9 85 17 173 17 195 -1 23 -1 77 -1 121 0 44 -2 92 -5 106 -4 17 0 30 10 39 27
22 87 173 105 265 30 146 49 274 60 395 6 74 16 178 21 230 17 153 23 1096 10
1460 -6 179 -14 384 -16 455 -11 313 -65 899 -100 1080 -7 39 -18 102 -25 140
-16 98 -28 160 -46 230 -9 33 -20 76 -24 95 -5 19 -17 64 -26 100 -9 36 -24
100 -34 143 -10 44 -23 91 -28 105 -17 50 -31 97 -46 157 -44 178 -140 395
-242 551 -75 113 -205 233 -334 307 -99 57 -417 156 -555 172 -27 4 -81 12
-120 20 -38 7 -97 16 -130 19 -33 4 -96 13 -140 21 -109 19 -289 42 -470 61
-82 8 -193 20 -245 25 -118 12 -938 19 -1040 8z"/>
<path d="M15905 13160 c-27 -5 -93 -13 -145 -19 -181 -21 -246 -34 -530 -103
-171 -42 -345 -92 -435 -125 -82 -30 -177 -63 -210 -74 -33 -11 -100 -35 -150
-54 -565 -211 -687 -250 -855 -276 -153 -23 -244 -81 -301 -191 -21 -41 -23
-42 -29 -18 -23 85 -97 171 -177 206 l-54 24 -747 0 -747 0 -50 -24 c-63 -30
-115 -84 -154 -162 l-31 -61 0 -1750 0 -1749 31 -60 c57 -106 125 -163 219
-183 40 -9 249 -11 780 -9 l725 3 47 27 c53 32 117 101 144 156 17 34 19 35
22 13 13 -84 138 -200 240 -222 31 -7 71 -19 87 -27 48 -24 145 -105 214 -178
112 -121 380 -462 513 -654 31 -44 206 -286 260 -358 15 -21 35 -48 45 -62 16
-23 59 -77 207 -260 84 -103 103 -132 142 -211 86 -174 134 -353 220 -819 27
-148 36 -183 71 -284 84 -243 194 -405 313 -459 64 -29 67 -29 190 -24 331 16
594 134 741 333 103 140 178 315 203 476 63 408 55 685 -30 993 -14 50 -32
114 -39 142 -8 29 -42 114 -75 188 -33 75 -60 138 -60 140 0 1 -27 59 -60 128
-61 127 -90 204 -90 244 l0 22 743 3 c688 3 746 5 797 22 232 77 452 274 572
509 17 34 47 112 66 172 33 104 35 119 39 280 5 177 0 209 -52 400 -24 86 -86
215 -150 310 -63 93 -62 77 -14 240 22 72 24 99 24 270 0 197 -5 229 -56 388
-18 58 -67 161 -117 246 l-25 43 18 95 c59 314 -38 720 -226 945 l-44 52 -1
140 c-2 546 -210 918 -618 1106 -101 47 -192 73 -328 95 -79 12 -188 15 -560
14 -255 -1 -485 -5 -513 -9z"/>
</g>
</svg>
